<?xml version="1.0" encoding="UTF-8" standalone="no" ?>
<!DOCTYPE svg PUBLIC "-//W3C//DTD SVG 1.1//EN" "http://www.w3.org/Graphics/SVG/1.1/DTD/svg11.dtd">
<svg xmlns="http://www.w3.org/2000/svg" xmlns:xlink="http://www.w3.org/1999/xlink" version="1.1" width="1080" height="1080" viewBox="0 0 1080 1080" xml:space="preserve">
<desc>Created with Fabric.js 5.2.4</desc>
<defs>
</defs>
<rect x="0" y="0" width="100%" height="100%" fill="transparent"></rect>
<g transform="matrix(1 0 0 1 540 540)" id="4c36fa4a-171c-454a-bb8b-4c32db21bf3a"  >
</g>
<g transform="matrix(1 0 0 1 540 540)" id="ec593881-01e3-4766-a414-90a255d39a35"  >
<rect style="stroke: none; stroke-width: 1; stroke-dasharray: none; stroke-linecap: butt; stroke-dashoffset: 0; stroke-linejoin: miter; stroke-miterlimit: 4; fill: rgb(255,255,255); fill-rule: nonzero; opacity: 1; visibility: hidden;" vector-effect="non-scaling-stroke"  x="-540" y="-540" rx="0" ry="0" width="1080" height="1080" />
</g>
<g transform="matrix(1 0 0 1 50 50)"  >
<rect style="stroke: none; stroke-width: 1; stroke-dasharray: none; stroke-linecap: butt; stroke-dashoffset: 0; stroke-linejoin: miter; stroke-miterlimit: 4; fill: rgb(255,255,255); fill-opacity: 0; fill-rule: nonzero; opacity: 1;" vector-effect="non-scaling-stroke"  x="-50" y="-50" rx="0" ry="0" width="100" height="100" />
</g>
<g transform="matrix(1 0 0 1 540 540)"  >
<rect style="stroke: none; stroke-width: 1; stroke-dasharray: none; stroke-linecap: butt; stroke-dashoffset: 0; stroke-linejoin: miter; stroke-miterlimit: 4; fill: rgb(255,255,255); fill-rule: nonzero; opacity: 1; visibility: hidden;" vector-effect="non-scaling-stroke"  x="-540" y="-540" rx="0" ry="0" width="1080" height="1080" />
</g>
<g transform="matrix(2.11 0 0 2.11 540 540)"  >
<path style="stroke: none; stroke-width: 1; stroke-dasharray: none; stroke-linecap: butt; stroke-dashoffset: 0; stroke-linejoin: miter; stroke-miterlimit: 4; fill: rgb(0,0,0); fill-rule: nonzero; opacity: 1;" vector-effect="non-scaling-stroke"  transform=" translate(-256, -256)" d="M 0 0 L 512 0 L 512 512 L 0 512 z" stroke-linecap="round" />
</g>
<g transform="matrix(2.11 0 0 2.11 540 540)"  >
<path style="stroke: none; stroke-width: 1; stroke-dasharray: none; stroke-linecap: butt; stroke-dashoffset: 0; stroke-linejoin: miter; stroke-miterlimit: 4; fill: rgb(255,255,255); fill-rule: nonzero; opacity: 1;" vector-effect="non-scaling-stroke"  transform=" translate(-256, -256)" d="M 74.5 36 C 53.237037131514455 36 36 53.237037131514455 36 74.5 L 36 437.5 C 36 458.76296286848554 53.237037131514455 476 74.5 476 L 437.5 476 C 458.76296286848554 476 476 458.76296286848554 476 437.5 L 476 74.5 C 476 53.237037131514455 458.76296286848554 36 437.5 36 L 74.5 36 z M 123.47 72.03 C 150.49687360096374 72.82493333193297 171.9954649036159 94.96143873876437 172 121.99999999999996 C 172 149.61423749153968 149.61423749153968 172 122 172 C 94.38576250846033 172 72 149.61423749153968 72 122 C 72.00226669947516 108.48571280890823 77.47497946354427 95.54787663247166 87.17126954856124 86.13416737371318 C 96.86755963357822 76.72045811495471 109.96155449176936 71.6326797609008 123.46999999999997 72.03 z M 391.47 72.03 C 418.49687360096374 72.82493333193298 439.9954649036159 94.96143873876443 440 122 C 440 149.61423749153968 417.61423749153965 172 390 172 C 362.38576250846035 172 340 149.61423749153968 340 122 C 340.0022666994752 108.48571280890823 345.4749794635443 95.54787663247163 355.17126954856127 86.13416737371317 C 364.86755963357825 76.72045811495471 377.9615544917694 71.63267976090079 391.47 72.03 z M 122 206 C 149.61423749153968 206 172 228.38576250846032 172 256 C 172 283.61423749153965 149.61423749153968 306 122.00000000000001 306 C 94.38576250846033 306 72 283.61423749153965 72 256 C 72 228.38576250846035 94.38576250846033 206 122 206 z M 390 206 C 417.61423749153965 206 440 228.38576250846032 440 256 C 440 283.61423749153965 417.6142374915397 306 390 306 C 362.38576250846035 306 340 283.61423749153965 340 256 C 340 228.38576250846035 362.38576250846035 206 390 206 z M 123.47 340.03 C 150.49687360096377 340.8249333319329 171.99546490361593 362.96143873876434 172 389.99999999999994 C 172 417.61423749153965 149.61423749153968 440 122 440 C 94.38576250846033 440 72 417.61423749153965 72 390 C 72.00226669947514 376.4857128089082 77.47497946354424 363.5478766324716 87.17126954856121 354.1341673737132 C 96.8675596335782 344.7204581149547 109.96155449176936 339.63267976090077 123.46999999999997 340.03 z M 391.47 340.03 C 418.4968736009638 340.824933331933 439.9954649036159 362.9614387387644 440 389.99999999999994 C 440 417.61423749153965 417.61423749153965 440 390 440 C 362.38576250846035 440 340 417.61423749153965 340 390 C 340.0022666994752 376.4857128089082 345.4749794635443 363.5478766324716 355.1712695485612 354.1341673737131 C 364.8675596335782 344.7204581149547 377.9615544917694 339.63267976090077 391.47 340.03 z" stroke-linecap="round" />
</g>
<g transform="matrix(2.11 0 0 2.11 540 650.97)"  >
<ellipse style="stroke: rgb(0,0,0); stroke-width: 1; stroke-dasharray: none; stroke-linecap: butt; stroke-dashoffset: 0; stroke-linejoin: miter; stroke-miterlimit: 4; fill: rgb(0,0,0); fill-rule: nonzero; opacity: 1;" vector-effect="non-scaling-stroke"  cx="0" cy="0" rx="51.321" ry="51.933" />
</g>
<g transform="matrix(2.11 0 0 2.11 540 189.78)"  >
<ellipse style="stroke: rgb(0,0,0); stroke-width: 1; stroke-dasharray: none; stroke-linecap: butt; stroke-dashoffset: 0; stroke-linejoin: miter; stroke-miterlimit: 4; fill: rgb(0,0,0); fill-rule: nonzero; opacity: 1;" vector-effect="non-scaling-stroke"  cx="0" cy="0" rx="51.321" ry="51.933" />
</g>
<g transform="matrix(2.11 0 0 2.11 540 886.34)"  >
<ellipse style="stroke: rgb(0,0,0); stroke-width: 1; stroke-dasharray: none; stroke-linecap: butt; stroke-dashoffset: 0; stroke-linejoin: miter; stroke-miterlimit: 4; fill: rgb(0,0,0); fill-rule: nonzero; opacity: 1;" vector-effect="non-scaling-stroke"  cx="0" cy="0" rx="51.321" ry="51.933" />
</g>
<g transform="matrix(2.11 0 0 2.11 540 421.37)"  >
<ellipse style="stroke: rgb(0,0,0); stroke-width: 1; stroke-dasharray: none; stroke-linecap: butt; stroke-dashoffset: 0; stroke-linejoin: miter; stroke-miterlimit: 4; fill: rgb(0,0,0); fill-rule: nonzero; opacity: 1;" vector-effect="non-scaling-stroke"  cx="0" cy="0" rx="51.321" ry="51.933" />
</g>
</svg>